<?xml version="1.0" encoding="UTF-8" standalone="no"?>
<!-- Created with Inkscape (http://www.inkscape.org/) -->

<svg
   xmlns:dc="http://purl.org/dc/elements/1.1/"
   xmlns:cc="http://creativecommons.org/ns#"
   xmlns:rdf="http://www.w3.org/1999/02/22-rdf-syntax-ns#"
   xmlns:svg="http://www.w3.org/2000/svg"
   xmlns="http://www.w3.org/2000/svg"
   xmlns:sodipodi="http://sodipodi.sourceforge.net/DTD/sodipodi-0.dtd"
   xmlns:inkscape="http://www.inkscape.org/namespaces/inkscape"
   width="28"
   height="28"
   viewBox="0 0 28 28"
   id="svg2"
   version="1.1"
   inkscape:version="0.91 r13725"
   sodipodi:docname="DiceMenu.svg">
  <defs
     id="defs4" />
  <sodipodi:namedview
     id="base"
     pagecolor="#ffffff"
     bordercolor="#666666"
     borderopacity="1.0"
     inkscape:pageopacity="0.0"
     inkscape:pageshadow="2"
     inkscape:zoom="11.2"
     inkscape:cx="-5.9685125"
     inkscape:cy="16.442013"
     inkscape:document-units="px"
     inkscape:current-layer="layer2"
     showgrid="false"
     units="px"
     inkscape:window-width="1920"
     inkscape:window-height="1058"
     inkscape:window-x="1912"
     inkscape:window-y="-8"
     inkscape:window-maximized="1"
     showguides="false" />
  <metadata
     id="metadata7">
    <rdf:RDF>
      <cc:Work
         rdf:about="">
        <dc:format>image/svg+xml</dc:format>
        <dc:type
           rdf:resource="http://purl.org/dc/dcmitype/StillImage" />
        <dc:title />
      </cc:Work>
    </rdf:RDF>
  </metadata>
  <g
     inkscape:label="Layer 1"
     inkscape:groupmode="layer"
     id="layer1"
     transform="translate(0,-1024.3622)" />
  <g
     inkscape:groupmode="layer"
     id="layer2"
     inkscape:label="Layer 2">
    <rect
       style="fill:#000000;fill-opacity:1;stroke:none"
       id="rect4180"
       width="13.259821"
       height="13.259821"
       x="8.5554047"
       y="-8.5908985"
       transform="matrix(0.83927553,0.54370634,-0.83927553,0.54370634,0,0)" />
    <rect
       style="fill:#000000;fill-opacity:1;stroke:none"
       id="rect4182"
       width="12.261666"
       height="12.065426"
       x="19.220528"
       y="26.579885"
       transform="matrix(0.8280482,-0.56065692,0,1,0,0)" />
    <rect
       style="fill:#000000;fill-opacity:1;stroke:none"
       id="rect4182-8"
       width="12.360903"
       height="12.065426"
       x="-15.519382"
       y="7.2868114"
       transform="matrix(-0.83107809,-0.55615574,0,1,0,0)" />
    <rect
       style="fill:#ffffff;fill-opacity:1;stroke:none"
       id="rect4201"
       width="2.579052"
       height="2.579052"
       x="10.492724"
       y="-7.4438734"
       transform="matrix(0.83666785,0.54771061,-0.83666785,0.54771061,0,0)"
       ry="1.289526" />
    <rect
       style="fill:#ffffff;fill-opacity:1;stroke:none"
       id="rect4201-3"
       width="2.579052"
       height="2.579052"
       x="10.355409"
       y="-3.556643"
       transform="matrix(0.83666785,0.54771061,-0.83666785,0.54771061,0,0)"
       ry="1.289526" />
    <rect
       style="fill:#ffffff;fill-opacity:1;stroke:none"
       id="rect4201-4"
       width="2.579052"
       height="2.579052"
       x="10.462036"
       y="0.71153414"
       transform="matrix(0.83666785,0.54771061,-0.83666785,0.54771061,0,0)"
       ry="1.289526" />
    <rect
       style="fill:#ffffff;fill-opacity:1;stroke:none"
       id="rect4201-9"
       width="2.579052"
       height="2.579052"
       x="17.387342"
       y="-7.2763181"
       transform="matrix(0.83666785,0.54771061,-0.83666785,0.54771061,0,0)"
       ry="1.289526" />
    <rect
       style="fill:#ffffff;fill-opacity:1;stroke:none"
       id="rect4201-3-8"
       width="2.579052"
       height="2.579052"
       x="17.250032"
       y="-3.3890929"
       transform="matrix(0.83666785,0.54771061,-0.83666785,0.54771061,0,0)"
       ry="1.289526" />
    <rect
       style="fill:#ffffff;fill-opacity:1;stroke:none"
       id="rect4201-4-0"
       width="2.579052"
       height="2.579052"
       x="17.356655"
       y="0.87908417"
       transform="matrix(0.83666785,0.54771061,-0.83666785,0.54771061,0,0)"
       ry="1.289526" />
    <rect
       style="fill:#ffffff;fill-opacity:1;stroke:none"
       id="rect4351"
       width="2.7722983"
       height="2.6901953"
       x="21.289518"
       y="34.646671"
       transform="matrix(0.82804167,-0.56066656,0,1,0,0)"
       ry="1.3450977" />
    <rect
       style="fill:#ffffff;fill-opacity:1;stroke:none"
       id="rect4351-9"
       width="2.7722983"
       height="2.6901953"
       x="24.360603"
       y="31.439398"
       transform="matrix(0.82804167,-0.56066656,0,1,0,0)"
       ry="1.3450977" />
    <rect
       style="fill:#ffffff;fill-opacity:1;stroke:none"
       id="rect4351-1"
       width="2.7722983"
       height="2.6901953"
       x="27.556353"
       y="28.096596"
       transform="matrix(0.82804167,-0.56066656,0,1,0,0)"
       ry="1.3450977" />
    <rect
       style="fill:#ffffff;fill-opacity:1;stroke:none"
       id="rect4351-16"
       width="2.7722983"
       height="2.6901953"
       x="-13.72049"
       y="15.635303"
       transform="matrix(-0.82804167,-0.56066656,0,1,0,0)"
       ry="1.3450977" />
    <rect
       style="fill:#ffffff;fill-opacity:1;stroke:none"
       id="rect4351-9-6"
       width="2.7722983"
       height="2.6901953"
       x="-10.433746"
       y="12.102513"
       transform="matrix(-0.82804167,-0.56066656,0,1,0,0)"
       ry="1.3450977" />
    <rect
       style="fill:#ffffff;fill-opacity:1;stroke:none"
       id="rect4351-1-4"
       width="2.7722983"
       height="2.6901953"
       x="-6.9145169"
       y="8.9410782"
       transform="matrix(-0.82804167,-0.56066656,0,1,0,0)"
       ry="1.3450977" />
    <rect
       style="fill:#ffffff;fill-opacity:1;stroke:none"
       id="rect4351-16-6"
       width="2.7722983"
       height="2.6901953"
       x="-14.181688"
       y="9.2138891"
       transform="matrix(-0.82804167,-0.56066656,0,1,0,0)"
       ry="1.3450977" />
    <rect
       style="fill:#ffffff;fill-opacity:1;stroke:none"
       id="rect4351-16-5"
       width="2.7722983"
       height="2.6901953"
       x="-7.1282048"
       y="15.517007"
       transform="matrix(-0.82804167,-0.56066656,0,1,0,0)"
       ry="1.3450977" />
  </g>
</svg>
